<?xml version="1.0" standalone="no"?>
<!DOCTYPE svg PUBLIC "-//W3C//DTD SVG 20010904//EN"
 "http://www.w3.org/TR/2001/REC-SVG-20010904/DTD/svg10.dtd">
<svg version="1.0" xmlns="http://www.w3.org/2000/svg"
 width="140.000000pt" height="140.000000pt" viewBox="0 0 140.000000 140.000000"
 preserveAspectRatio="xMidYMid meet">
<metadata>
Created by potrace 1.14, written by Peter Selinger 2001-2017
</metadata>
<g transform="translate(0.000000,140.000000) scale(0.100000,-0.100000)"
fill="#000000" stroke="none">
<path d="M0 700 l0 -700 700 0 700 0 0 700 0 700 -700 0 -700 0 0 -700z m640
402 c29 -13 10 -62 -24 -62 -10 0 -14 7 -11 23 4 21 3 21 -10 3 -11 -14 -19
-16 -40 -9 l-26 8 21 23 c20 22 59 28 90 14z m-55 -102 c4 -6 -6 -10 -22 -9
-25 0 -26 1 -8 9 11 5 21 9 22 9 1 1 5 -3 8 -9z m55 -10 c0 -5 9 -6 20 -3 15
4 19 2 15 -9 -6 -16 -61 -22 -70 -8 -9 15 6 39 21 33 8 -3 14 -9 14 -13z m0
-234 c0 -3 -4 -8 -10 -11 -5 -3 -10 -1 -10 4 0 6 5 11 10 11 6 0 10 -2 10 -4z
m40 -131 c0 -12 -56 -19 -72 -9 -16 10 1 20 36 21 22 0 36 -4 36 -12z m30 5
c0 -5 -4 -10 -10 -10 -5 0 -10 5 -10 10 0 6 5 10 10 10 6 0 10 -4 10 -10z
m-40 -560 c0 -5 -7 -10 -15 -10 -8 0 -15 5 -15 10 0 6 7 10 15 10 8 0 15 -4
15 -10z"/>
</g>
</svg>
