<svg width="40" height="40" viewBox="0 0 40 40" fill="none" xmlns="http://www.w3.org/2000/svg">
<path d="M34.1875 32.0688C33.6812 31.1438 34.3281 30.2063 35.4312 29.0438C37.1812 27.1969 39.0875 22.9187 37.3187 18.5719C37.3281 18.5469 36.9687 17.8156 36.9812 17.7906L36.25 17.7531C36.0156 17.7187 28.0125 17.7031 20 17.7031C11.9875 17.7031 3.98436 17.7187 3.74999 17.7531C3.74999 17.7531 2.67186 18.5469 2.68124 18.5687C0.912487 22.9156 2.81874 27.1937 4.56874 29.0406C5.67186 30.2031 6.31874 31.1437 5.81249 32.0656C5.32186 32.9625 3.85624 33.0938 3.85624 33.0938C3.85624 33.0938 4.19374 34.0125 5.00936 34.5062C5.76249 34.9625 6.68749 35.0719 7.32811 35.0875C7.32811 35.0875 9.82811 38.5469 16.3656 38.5469H23.6406C30.1781 38.5469 32.6781 35.0875 32.6781 35.0875C33.3187 35.0719 34.2437 34.9656 34.9969 34.5062C35.8125 34.0125 36.15 33.0938 36.15 33.0938C36.15 33.0938 34.6812 32.9656 34.1875 32.0688Z" fill="#9E9E9E"/>
<path d="M19.9969 38.55V34.7094L31.6156 33.7906L32.6719 35.0906C32.6719 35.0906 30.1719 38.55 23.6344 38.55H19.9969Z" fill="url(#paint0_radial_101_820)"/>
<path d="M32.6437 33.4156C30.9031 30.7719 34.7625 29.7875 34.7625 29.7875L34.7656 29.7906C34.0937 30.625 33.7906 31.3531 34.1843 32.0687C34.675 32.9656 36.1406 33.0969 36.1406 33.0969C36.1406 33.0969 34.1468 34.8719 32.6437 33.4156Z" fill="url(#paint1_radial_101_820)"/>
<path d="M37.3282 18.5688C39.0563 22.7781 37.2375 27.1125 35.5344 28.9406C35.3 29.1906 34.3094 30.1656 34.0844 30.9406C34.0844 30.9406 30.2032 25.5313 29.0469 22.35C28.8125 21.7094 28.6 21.0469 28.5719 20.3656C28.55 19.8531 28.6313 19.2438 28.925 18.8094C29.2875 18.275 37.1219 18.1188 37.1219 18.1188C37.1219 18.125 37.3282 18.5688 37.3282 18.5688Z" fill="url(#paint2_radial_101_820)"/>
<path d="M2.68124 18.5688C0.956242 22.7781 2.77187 27.1125 4.47499 28.9406C4.70937 29.1906 5.69999 30.1656 5.92499 30.9406C5.92499 30.9406 9.80624 25.5313 10.9625 22.35C11.1969 21.7094 11.4094 21.0469 11.4375 20.3656C11.4594 19.8531 11.3781 19.2438 11.0844 18.8094C10.7219 18.275 10.3 18.4188 9.68749 18.4188C8.51562 18.4188 3.39062 18.1188 2.99374 18.1188C2.99374 18.125 2.68124 18.5688 2.68124 18.5688Z" fill="url(#paint3_radial_101_820)"/>
<path d="M20.0125 38.55V34.7094L8.39377 33.7906L7.33752 35.0906C7.33752 35.0906 9.83752 38.55 16.375 38.55H20.0125Z" fill="url(#paint4_radial_101_820)"/>
<path d="M7.36565 33.4156C9.10627 30.7719 5.2469 29.7875 5.2469 29.7875L5.24377 29.7906C5.91565 30.625 6.21877 31.3531 5.82502 32.0687C5.3344 32.9656 3.86877 33.0969 3.86877 33.0969C3.86877 33.0969 5.86252 34.8719 7.36565 33.4156Z" fill="url(#paint5_radial_101_820)"/>
<path d="M31.1094 20.1156H8.89061C6.49374 20.1156 4.53436 22.2031 4.53436 24.7562C4.53436 27.3094 6.49374 29.3969 8.89061 29.3969H31.1125C33.5094 29.3969 35.4687 27.3094 35.4687 24.7562C35.4687 22.2031 33.5062 20.1156 31.1094 20.1156Z" fill="#E59600"/>
<path d="M20 4.10938C12.925 4.10938 6.37189 11.675 6.37189 22.5656C6.37189 33.3969 13.125 38.75 20 38.75C26.875 38.75 33.6281 33.3969 33.6281 22.5656C33.6281 11.6781 27.075 4.10938 20 4.10938Z" fill="#FFCA28"/>
<path d="M13.4313 17.9281C13.2438 17.9281 13.0688 17.8156 12.9938 17.6312C12.9709 17.574 12.9596 17.5128 12.9604 17.4512C12.9613 17.3896 12.9743 17.3287 12.9986 17.2721C13.023 17.2155 13.0583 17.1643 13.1025 17.1213C13.1467 17.0784 13.199 17.0446 13.2563 17.0219C13.3719 16.975 16.1 15.9156 19.8938 15.9156C23.6844 15.9156 26.6063 16.975 26.7281 17.0187C26.9719 17.1094 27.0969 17.3781 27.0063 17.6188C26.9156 17.8594 26.6469 17.9875 26.4031 17.8969C26.375 17.8875 23.5063 16.85 19.8906 16.85C16.2719 16.85 13.6219 17.8812 13.5969 17.8906C13.5469 17.9187 13.4875 17.9281 13.4313 17.9281ZM15.3219 15.3C15.2095 15.3008 15.1006 15.2611 15.015 15.1882C14.9295 15.1153 14.873 15.014 14.8559 14.9029C14.8389 14.7919 14.8624 14.6783 14.9221 14.5831C14.9818 14.4879 15.0738 14.4174 15.1813 14.3844C15.2719 14.3562 17.4594 13.6719 20 13.6719C22.5406 13.6719 24.7281 14.3531 24.8219 14.3844C24.8806 14.4028 24.935 14.4327 24.9822 14.4722C25.0293 14.5117 25.0682 14.5601 25.0967 14.6147C25.1251 14.6693 25.1425 14.7289 25.1479 14.7902C25.1533 14.8514 25.1466 14.9132 25.1281 14.9719C25.1097 15.0306 25.0798 15.085 25.0403 15.1322C25.0008 15.1793 24.9524 15.2182 24.8978 15.2467C24.8433 15.2751 24.7836 15.2925 24.7223 15.2979C24.6611 15.3033 24.5993 15.2966 24.5406 15.2781C24.5188 15.2719 22.3969 14.6094 20.0031 14.6094C17.6031 14.6094 15.4875 15.2719 15.4656 15.2781C15.4156 15.2906 15.3688 15.3 15.3219 15.3ZM13.0969 28.2781C12.275 28.2781 11.45 28.0125 10.825 27.4875C10.6281 27.3219 10.6031 27.025 10.7688 26.8281C10.9344 26.6312 11.2313 26.6062 11.4281 26.7719C12.3469 27.5469 13.8469 27.5469 14.7656 26.7719C14.9625 26.6062 15.2594 26.6312 15.425 26.8281C15.5906 27.025 15.5656 27.3219 15.3688 27.4875C14.7438 28.0156 13.9188 28.2781 13.0969 28.2781ZM26.9031 28.2781C26.0781 28.2781 25.2563 28.0125 24.6281 27.4875C24.4313 27.3219 24.4063 27.025 24.5719 26.8281C24.7375 26.6312 25.0344 26.6062 25.2313 26.7719C26.15 27.5469 27.65 27.5469 28.5688 26.7719C28.7656 26.6062 29.0625 26.6312 29.2281 26.8281C29.3938 27.025 29.3688 27.3219 29.1719 27.4875C28.55 28.0156 27.7281 28.2781 26.9031 28.2781ZM12.6969 32.9094C12.5781 32.9094 12.4563 32.8625 12.3656 32.7719C12.3218 32.7286 12.287 32.677 12.2632 32.6201C12.2395 32.5633 12.2272 32.5022 12.2272 32.4406C12.2272 32.379 12.2395 32.318 12.2632 32.2611C12.287 32.2043 12.3218 32.1527 12.3656 32.1094L15.3438 29.1313C15.5281 28.9469 15.8219 28.9469 16.0063 29.1313C16.1906 29.3156 16.1906 29.6125 16.0063 29.7937L13.0281 32.775C12.9375 32.8656 12.8156 32.9094 12.6969 32.9094ZM27.3031 32.9094C27.1844 32.9094 27.0625 32.8625 26.9719 32.7719L23.9938 29.7937C23.8094 29.6094 23.8094 29.3125 23.9938 29.1313C24.1781 28.95 24.475 28.9469 24.6563 29.1313L27.6375 32.1125C27.8219 32.2969 27.8219 32.5938 27.6375 32.775C27.5438 32.8656 27.4219 32.9094 27.3031 32.9094Z" fill="#EDA600"/>
<path d="M21.5687 27.9969C21.5267 27.9796 21.4826 27.9681 21.4375 27.9625H18.5625C18.5187 27.9688 18.475 27.9781 18.4312 27.9969C18.1718 28.1031 18.0281 28.3719 18.15 28.6594C18.275 28.9469 18.8468 29.7531 20 29.7531C21.1531 29.7531 21.725 28.9469 21.85 28.6594C21.9718 28.3719 21.8312 28.1 21.5687 27.9969Z" fill="#E59600"/>
<path d="M23.4219 31.2562C22.1281 32.025 17.8813 32.025 16.5875 31.2562C15.8438 30.8125 15.0844 31.4906 15.3938 32.1656C15.6969 32.8281 18.0125 34.3719 20.0156 34.3719C22.0188 34.3719 24.3031 32.8312 24.6094 32.1656C24.9156 31.4906 24.1656 30.8125 23.4219 31.2562Z" fill="#795548"/>
<path d="M13.1469 26.2656C14.2653 26.2656 15.1719 25.3268 15.1719 24.1688C15.1719 23.0107 14.2653 22.0719 13.1469 22.0719C12.0285 22.0719 11.1219 23.0107 11.1219 24.1688C11.1219 25.3268 12.0285 26.2656 13.1469 26.2656Z" fill="#404040"/>
<path d="M26.8531 26.2656C27.9715 26.2656 28.8781 25.3268 28.8781 24.1688C28.8781 23.0107 27.9715 22.0719 26.8531 22.0719C25.7347 22.0719 24.8281 23.0107 24.8281 24.1688C24.8281 25.3268 25.7347 26.2656 26.8531 26.2656Z" fill="#404040"/>
<path d="M16.0813 20.3969C15.7063 19.9 14.8344 19.175 13.1469 19.175C11.4594 19.175 10.5875 19.9 10.2125 20.3969C10.0469 20.6188 10.0875 20.8719 10.2032 21.025C10.3094 21.1688 10.625 21.3 10.975 21.1813C11.325 21.0625 12.0063 20.7094 13.1469 20.7031C14.2875 20.7125 14.9719 21.0625 15.3188 21.1813C15.6657 21.3 15.9844 21.1688 16.0907 21.025C16.2063 20.8719 16.2469 20.6188 16.0813 20.3969ZM29.7875 20.3969C29.4125 19.9 28.5407 19.175 26.8532 19.175C25.1657 19.175 24.2938 19.9 23.9188 20.3969C23.7532 20.6188 23.7938 20.8719 23.9094 21.025C24.0157 21.1688 24.3313 21.3 24.6813 21.1813C25.0313 21.0625 25.7125 20.7094 26.8532 20.7031C27.9938 20.7125 28.6782 21.0625 29.025 21.1813C29.375 21.3 29.6907 21.1688 29.7969 21.025C29.9125 20.8719 29.9563 20.6188 29.7875 20.3969Z" fill="#9E9E9E"/>
<path d="M36.2937 9.81563C35.3 8.3125 33.0781 6.3 31.0812 6.16875C30.7625 4.25 28.7062 2.625 26.7187 1.99375C21.3406 0.290626 17.8375 2.2 15.9594 3.225C15.5687 3.4375 13.0437 4.8375 11.2781 3.83438C10.1719 3.20625 10.1937 1.50313 10.1937 1.50313C10.1937 1.50313 6.72812 2.82188 7.91249 6.50313C6.72187 6.55313 5.15937 7.05313 4.33437 8.725C3.34999 10.7156 3.69999 12.3812 3.98437 13.1781C2.95937 14.0469 1.67187 15.9 2.55624 18.3031C3.22187 20.1125 5.87811 20.9437 5.87811 20.9437C5.69061 24.2 6.29686 26.2063 6.61874 27.0156C6.67499 27.1562 6.87812 27.1438 6.91249 26.9969C7.31249 25.3844 8.68749 19.7625 8.54999 18.7812C8.54999 18.7812 13.1625 17.8656 17.5625 14.6281C18.4594 13.9688 19.4281 13.4062 20.4594 12.9969C25.9844 10.7969 27.1406 14.55 27.1406 14.55C27.1406 14.55 30.9687 13.8156 32.125 19.1344C32.5594 21.1281 32.8531 24.3188 33.1 26.55C33.1187 26.7063 33.3312 26.7406 33.3937 26.5938C33.7812 25.7094 34.5531 23.95 34.7375 22.1594C34.8031 21.5281 36.5031 20.6938 37.2312 17.9875C38.2125 14.3719 37.0094 10.9 36.2937 9.81563Z" fill="#9E9E9E"/>
<path d="M34.725 22.1719C34.7906 21.5406 36.4906 20.7062 37.2187 18C37.2969 17.7125 37.3625 17.4187 37.4219 17.125C38.0156 13.8344 36.95 10.8156 36.2875 9.81562C35.3687 8.42812 33.4 6.60625 31.5312 6.23437C31.3687 6.2125 31.2094 6.19375 31.0594 6.18437C31.0594 6.18437 31.1937 7.05625 30.8406 7.75312C30.3844 8.65625 29.4562 8.86875 29.4562 8.86875C34.3281 13.7406 33.9812 17.8156 34.725 22.1719Z" fill="url(#paint6_radial_101_820)"/>
<path d="M17.1344 2.60937C16.6906 2.825 16.2969 3.04062 15.9563 3.225C15.5656 3.4375 13.0406 4.8375 11.275 3.83437C10.1875 3.21562 10.1875 1.56562 10.1906 1.50625C9.69064 2.14375 8.17814 6.70312 12.6 7.00625C14.5063 7.1375 15.6844 5.475 16.3781 4.06562C16.6313 3.55625 17.0281 2.80937 17.1344 2.60937Z" fill="url(#paint7_radial_101_820)"/>
<path d="M26.1625 1.82812C29.1375 2.63437 30.75 4.26875 31.075 6.17187C31.2188 6.76562 31.3875 12.3031 20.8157 6.00937C16.8844 3.66875 17.9563 2.20312 18.4188 2.0375C20.2157 1.38437 22.8282 0.924999 26.1625 1.82812Z" fill="url(#paint8_radial_101_820)"/>
<path d="M10.1781 1.50625C10.1718 1.50937 10.1656 1.5125 10.1531 1.51562H10.15C9.77185 1.675 6.79685 3.05 7.90935 6.49688L11.075 7.00625C8.27497 4.17187 10.1906 1.5 10.1906 1.5L10.1781 1.50625Z" fill="url(#paint9_radial_101_820)"/>
<path d="M9.86562 6.81563L7.90937 6.5C7.83437 6.5 7.57187 6.525 7.43124 6.54375C6.33124 6.69688 5.03124 7.26563 4.33124 8.725C3.57499 10.2938 3.59687 11.6406 3.79999 12.5406C3.85937 12.8438 3.98124 13.1813 3.98124 13.1813C3.98124 13.1813 4.94999 12.2625 7.25312 12.2031L9.86562 6.81563Z" fill="url(#paint10_radial_101_820)"/>
<path d="M3.88749 13.2563C2.92499 14.1125 1.62499 16.0188 2.58437 18.3813C3.30624 20.1656 5.87499 20.9406 5.87499 20.9406C5.87499 20.95 6.38749 21.1 6.65312 21.1L7.25312 12.1969C6.02187 12.1969 4.84062 12.5656 4.07499 13.0969C4.08124 13.1156 3.88437 13.2438 3.88749 13.2563Z" fill="url(#paint11_radial_101_820)"/>
<defs>
<radialGradient id="paint0_radial_101_820" cx="0" cy="0" r="1" gradientUnits="userSpaceOnUse" gradientTransform="translate(25.9291 33.0049) scale(9.52156 4.67699)">
<stop offset="0.699" stop-color="#D1D1D1" stop-opacity="0"/>
<stop offset="1" stop-color="#D1D1D1"/>
</radialGradient>
<radialGradient id="paint1_radial_101_820" cx="0" cy="0" r="1" gradientUnits="userSpaceOnUse" gradientTransform="translate(35.3072 31.5883) rotate(154.924) scale(2.81361 2.0873)">
<stop offset="0.584" stop-color="#D1D1D1"/>
<stop offset="1" stop-color="#D1D1D1" stop-opacity="0"/>
</radialGradient>
<radialGradient id="paint2_radial_101_820" cx="0" cy="0" r="1" gradientUnits="userSpaceOnUse" gradientTransform="translate(28.0152 23.6297) rotate(-94.2783) scale(12.3592 10.3006)">
<stop offset="0.699" stop-color="#D1D1D1" stop-opacity="0"/>
<stop offset="1" stop-color="#D1D1D1"/>
</radialGradient>
<radialGradient id="paint3_radial_101_820" cx="0" cy="0" r="1" gradientUnits="userSpaceOnUse" gradientTransform="translate(11.9941 23.6294) rotate(-85.7217) scale(12.3592 10.3006)">
<stop offset="0.699" stop-color="#D1D1D1" stop-opacity="0"/>
<stop offset="1" stop-color="#D1D1D1"/>
</radialGradient>
<radialGradient id="paint4_radial_101_820" cx="0" cy="0" r="1" gradientUnits="userSpaceOnUse" gradientTransform="translate(14.08 33.0049) rotate(180) scale(9.52156 4.67699)">
<stop offset="0.699" stop-color="#D1D1D1" stop-opacity="0"/>
<stop offset="1" stop-color="#D1D1D1"/>
</radialGradient>
<radialGradient id="paint5_radial_101_820" cx="0" cy="0" r="1" gradientUnits="userSpaceOnUse" gradientTransform="translate(4.7024 31.5885) rotate(25.0761) scale(2.81361 2.0873)">
<stop offset="0.584" stop-color="#D1D1D1"/>
<stop offset="1" stop-color="#D1D1D1" stop-opacity="0"/>
</radialGradient>
<radialGradient id="paint6_radial_101_820" cx="0" cy="0" r="1" gradientUnits="userSpaceOnUse" gradientTransform="translate(27.3255 17.1087) rotate(72.0851) scale(14.487 10.749)">
<stop offset="0.699" stop-color="#D1D1D1" stop-opacity="0"/>
<stop offset="1" stop-color="#D1D1D1"/>
</radialGradient>
<radialGradient id="paint7_radial_101_820" cx="0" cy="0" r="1" gradientUnits="userSpaceOnUse" gradientTransform="translate(13.2024 1.31317) rotate(28.2026) scale(3.79851 4.50393)">
<stop offset="0.584" stop-color="#D1D1D1"/>
<stop offset="1" stop-color="#D1D1D1" stop-opacity="0"/>
</radialGradient>
<radialGradient id="paint8_radial_101_820" cx="0" cy="0" r="1" gradientUnits="userSpaceOnUse" gradientTransform="translate(21.6917 8.21146) rotate(-157.19) scale(11.8789 6.67601)">
<stop offset="0.699" stop-color="#D1D1D1" stop-opacity="0"/>
<stop offset="1" stop-color="#D1D1D1"/>
</radialGradient>
<radialGradient id="paint9_radial_101_820" cx="0" cy="0" r="1" gradientUnits="userSpaceOnUse" gradientTransform="translate(11.6772 4.77848) scale(3.48656 4.26511)">
<stop offset="0.699" stop-color="#D1D1D1" stop-opacity="0"/>
<stop offset="1" stop-color="#D1D1D1"/>
</radialGradient>
<radialGradient id="paint10_radial_101_820" cx="0" cy="0" r="1" gradientUnits="userSpaceOnUse" gradientTransform="translate(11.1972 10.9324) rotate(-164.942) scale(6.5393 6.1196)">
<stop offset="0.699" stop-color="#D1D1D1" stop-opacity="0"/>
<stop offset="1" stop-color="#D1D1D1"/>
</radialGradient>
<radialGradient id="paint11_radial_101_820" cx="0" cy="0" r="1" gradientUnits="userSpaceOnUse" gradientTransform="translate(9.64667 17.2463) rotate(7.83355) scale(6.86553 9.6472)">
<stop offset="0.699" stop-color="#D1D1D1" stop-opacity="0"/>
<stop offset="1" stop-color="#D1D1D1"/>
</radialGradient>
</defs>
</svg>
