<svg width="40" height="40" viewBox="0 0 40 40" fill="none" xmlns="http://www.w3.org/2000/svg">
<path d="M30.9063 24.9531C30.5156 24.2437 31.0125 23.5219 31.8625 22.6281C33.2094 21.2094 34.675 17.9187 33.3125 14.5781C33.3219 14.5594 33.0438 13.9969 33.0531 13.9781L32.4938 13.95C32.3156 13.925 26.1625 13.9125 20.0031 13.9125C13.8438 13.9125 7.69376 13.925 7.51251 13.95C7.51251 13.95 6.68439 14.5594 6.69064 14.5781C5.33126 17.9187 6.79376 21.2094 8.14064 22.6281C8.98751 23.5219 9.48439 24.2437 9.09689 24.9531C8.71876 25.6437 7.59376 25.7437 7.59376 25.7437C7.59376 25.7437 7.85314 26.45 8.47814 26.8312C9.05626 27.1844 9.76876 27.2656 10.2594 27.2781C10.2594 27.2781 12.1813 29.9375 17.2063 29.9375H22.8C27.825 29.9375 29.7469 27.2781 29.7469 27.2781C30.2375 27.2656 30.95 27.1844 31.5281 26.8312C32.1531 26.45 32.4125 25.7437 32.4125 25.7437C32.4125 25.7437 31.2844 25.6437 30.9063 24.9531Z" fill="#E63D00"/>
<path d="M19.9969 29.9344V26.9844L28.925 26.2781L29.7375 27.2781C29.7375 27.2781 27.8156 29.9375 22.7906 29.9375L19.9969 29.9344Z" fill="url(#paint0_radial_101_1478)"/>
<path d="M29.7188 25.9875C28.3813 23.9563 31.3469 23.1969 31.3469 23.1969L31.35 23.2C30.8344 23.8406 30.6 24.4 30.9031 24.9531C31.2813 25.6437 32.4063 25.7437 32.4063 25.7437C32.4063 25.7437 30.8719 27.1063 29.7188 25.9875Z" fill="url(#paint1_radial_101_1478)"/>
<path d="M33.3187 14.5781C34.6469 17.8125 33.25 21.1438 31.9406 22.55C31.7594 22.7438 31 23.4906 30.825 24.0875C30.825 24.0875 27.8437 19.9281 26.9531 17.4844C26.7719 16.9906 26.6094 16.4844 26.5875 15.9594C26.5719 15.5656 26.6312 15.0969 26.8594 14.7656C27.1375 14.3563 33.1594 14.2344 33.1594 14.2344L33.3187 14.5781Z" fill="url(#paint2_radial_101_1478)"/>
<path d="M6.6875 14.5781C5.3625 17.8125 6.75938 21.1437 8.06563 22.5469C8.24688 22.7406 9.00625 23.4875 9.18125 24.0844C9.18125 24.0844 12.1625 19.925 13.0531 17.4812C13.2344 16.9875 13.3969 16.4812 13.4188 15.9562C13.4344 15.5625 13.375 15.0937 13.1469 14.7625C12.8688 14.3531 12.5438 14.4625 12.0719 14.4625C11.1719 14.4625 7.23125 14.2312 6.925 14.2312C6.92813 14.2344 6.6875 14.5781 6.6875 14.5781Z" fill="url(#paint3_radial_101_1478)"/>
<path d="M20.0094 29.9344V26.9844L11.0812 26.2781L10.2687 27.2781C10.2687 27.2781 12.1906 29.9375 17.2156 29.9375L20.0094 29.9344Z" fill="url(#paint4_radial_101_1478)"/>
<path d="M10.2906 25.9875C11.6281 23.9563 8.66252 23.1969 8.66252 23.1969L8.6594 23.2C9.17502 23.8406 9.4094 24.4 9.10627 24.9531C8.72815 25.6437 7.60315 25.7437 7.60315 25.7437C7.60315 25.7437 9.1344 27.1063 10.2906 25.9875Z" fill="url(#paint5_radial_101_1478)"/>
<path d="M20.0406 29.5875H20C12.0344 29.5969 4.02185 31.9313 4.02185 37.4875V38.75H35.9812V37.4875C35.9781 32.25 28.0406 29.5875 20.0406 29.5875Z" fill="url(#paint6_linear_101_1478)"/>
<path d="M17.1625 28.15V31.2688C17.1625 32.6781 18.3187 33.8219 19.7437 33.8219H20.2594C21.6844 33.8219 22.8406 32.6781 22.8406 31.2688V28.15H17.1625ZM28.5406 15.7594H11.4594C9.61874 15.7594 8.11249 17.3656 8.11249 19.325C8.11249 21.2844 9.61874 22.8906 11.4594 22.8906H28.5375C30.3781 22.8906 31.8844 21.2844 31.8844 19.325C31.8844 17.3656 30.3812 15.7594 28.5406 15.7594Z" fill="#E59600"/>
<path d="M20 3.45937C14.5625 3.45937 9.52502 9.275 9.52502 17.6437C9.52502 25.9687 14.7156 30.0844 20 30.0844C25.2844 30.0844 30.475 25.9687 30.475 17.6437C30.475 9.275 25.4375 3.45937 20 3.45937Z" fill="#FFCA28"/>
<path d="M14.8625 19.9719C15.7134 19.9719 16.4031 19.2583 16.4031 18.3781C16.4031 17.4979 15.7134 16.7844 14.8625 16.7844C14.0117 16.7844 13.3219 17.4979 13.3219 18.3781C13.3219 19.2583 14.0117 19.9719 14.8625 19.9719Z" fill="#404040"/>
<path d="M25.1375 19.9719C25.9884 19.9719 26.6782 19.2583 26.6782 18.3781C26.6782 17.4979 25.9884 16.7844 25.1375 16.7844C24.2867 16.7844 23.5969 17.4979 23.5969 18.3781C23.5969 19.2583 24.2867 19.9719 25.1375 19.9719Z" fill="#404040"/>
<path d="M17.1813 15.5688C16.8906 15.1844 16.2219 14.6281 14.9219 14.6281C13.6219 14.6281 12.95 15.1875 12.6625 15.5688C12.5344 15.7375 12.5656 15.9344 12.6563 16.0531C12.7375 16.1625 12.9813 16.2656 13.25 16.175C13.5188 16.0844 14.0438 15.8125 14.9219 15.8063C15.8 15.8125 16.325 16.0844 16.5938 16.175C16.8625 16.2656 17.1063 16.1656 17.1875 16.0531C17.2781 15.9344 17.3094 15.7375 17.1813 15.5688ZM27.3375 15.5688C27.0469 15.1844 26.3781 14.6281 25.0781 14.6281C23.7781 14.6281 23.1063 15.1875 22.8188 15.5688C22.6906 15.7375 22.7219 15.9344 22.8125 16.0531C22.8938 16.1625 23.1375 16.2656 23.4063 16.175C23.675 16.0844 24.2 15.8125 25.0781 15.8063C25.9563 15.8125 26.4813 16.0844 26.75 16.175C27.0188 16.2656 27.2625 16.1656 27.3438 16.0531C27.4344 15.9344 27.4656 15.7375 27.3375 15.5688Z" fill="#C23B00"/>
<path d="M21.2062 21.2687C21.1719 21.2562 21.1406 21.2469 21.1062 21.2438H18.8969C18.8625 21.2469 18.8281 21.2562 18.7969 21.2687C18.5969 21.35 18.4875 21.5563 18.5812 21.7781C18.675 22 19.1156 22.6187 20.0031 22.6187C20.8906 22.6187 21.3312 21.9969 21.425 21.7781C21.5156 21.5563 21.4062 21.35 21.2062 21.2687Z" fill="#E59600"/>
<path d="M22.6312 23.7937C21.6343 24.3844 18.3718 24.3844 17.3781 23.7937C16.8062 23.4531 16.2218 23.975 16.4593 24.4937C16.6937 25.0031 18.475 26.1875 20.0125 26.1875C21.55 26.1875 23.3093 25.0031 23.5437 24.4937C23.7781 23.975 23.2031 23.4531 22.6312 23.7937Z" fill="#795548"/>
<path d="M32.5219 7.84687C31.7594 6.69062 30.05 5.14687 28.5157 5.04375C28.2688 3.56875 26.6907 2.31875 25.1625 1.83437C21.0282 0.524999 18.3375 1.99375 16.8938 2.78437C16.5938 2.95 14.6532 4.025 13.2969 3.25312C12.4469 2.76875 12.4625 1.45937 12.4625 1.45937C12.4625 1.45937 9.7969 2.475 10.7094 5.3C9.79378 5.3375 8.59378 5.725 7.9594 7.00937C7.20315 8.54062 7.4719 9.81875 7.69065 10.4313C6.90315 11.1 5.91253 12.5219 6.59065 14.3687C7.10315 15.7594 9.14378 16.4 9.14378 16.4C9.00003 18.9031 9.46565 20.4438 9.71253 21.0688C9.75628 21.1781 9.9094 21.1687 9.93753 21.0562C10.2469 19.8187 11.3032 15.4937 11.1969 14.7406C11.1969 14.7406 14.7438 14.0375 18.125 11.5469C18.8125 11.0406 19.5594 10.6094 20.3532 10.2906C24.6 8.6 25.4907 11.4844 25.4907 11.4844C25.4907 11.4844 28.4344 10.9187 29.3219 15.0062C29.6563 16.5375 29.8844 18.9906 30.0719 20.7063C30.0844 20.8281 30.25 20.8531 30.3 20.7406C30.5969 20.0594 31.1907 18.7094 31.3313 17.3312C31.3813 16.8469 32.6875 16.2063 33.25 14.125C33.9969 11.35 33.075 8.68125 32.5219 7.84687Z" fill="#E63D00"/>
<path d="M31.3187 17.3438C31.3687 16.8594 32.675 16.2188 33.2375 14.1375C33.2969 13.9156 33.3469 13.6906 33.3937 13.4656C33.85 10.9375 33.0312 8.61563 32.5219 7.84688C31.8156 6.77813 30.3031 5.38125 28.8656 5.09375C28.7406 5.07813 28.6187 5.0625 28.5031 5.05625C28.5031 5.05625 28.6062 5.72813 28.3344 6.2625C27.9844 6.95625 27.2687 7.12188 27.2687 7.12188C31.0125 10.8656 30.7437 13.9969 31.3187 17.3438Z" fill="url(#paint7_radial_101_1478)"/>
<path d="M17.7969 2.30938C17.4562 2.475 17.1531 2.64063 16.8937 2.78125C16.5937 2.94688 14.6531 4.02188 13.2969 3.25C12.4625 2.775 12.4625 1.50625 12.4625 1.4625C12.0781 1.95313 10.9156 5.45625 14.3156 5.69063C15.7812 5.79063 16.6844 4.5125 17.2219 3.43125C17.4125 3.03438 17.7156 2.4625 17.7969 2.30938Z" fill="url(#paint8_radial_101_1478)"/>
<path d="M24.7375 1.70937C27.025 2.32812 28.1406 3.49375 28.5125 5.04687C28.6219 5.50312 28.7531 9.75937 20.6281 4.92187C17.6063 3.12187 18.4313 1.99687 18.7844 1.86875C20.1656 1.36875 22.175 1.01562 24.7375 1.70937Z" fill="url(#paint9_radial_101_1478)"/>
<path d="M12.45 1.4625C12.4468 1.46562 12.4406 1.46562 12.4312 1.46875H12.4281C12.1375 1.59062 9.8531 2.65 10.7062 5.3L13.1375 5.69062C10.9843 3.50937 12.4593 1.45625 12.4593 1.45625C12.4593 1.45625 12.4531 1.45937 12.45 1.4625Z" fill="url(#paint10_radial_101_1478)"/>
<path d="M12.2094 5.54063L10.7063 5.3C10.6469 5.3 10.4469 5.31875 10.3375 5.33438C9.49065 5.45313 8.49377 5.89063 7.95315 7.00938C7.3719 8.21563 7.38752 9.25 7.5469 9.94063C7.59377 10.1719 7.68752 10.4344 7.68752 10.4344C7.68752 10.4344 8.43127 9.72813 10.2031 9.68125L12.2094 5.54063Z" fill="url(#paint11_radial_101_1478)"/>
<path d="M7.61561 10.4937C6.87498 11.15 5.87811 12.6156 6.61248 14.4344C7.16873 15.8062 9.14061 16.4 9.14061 16.4C9.14061 16.4062 9.53436 16.5219 9.73748 16.5219L10.2 9.67812C9.25311 9.67812 8.34373 9.9625 7.75623 10.3719C7.76561 10.3844 7.61248 10.4844 7.61561 10.4937Z" fill="url(#paint12_radial_101_1478)"/>
<defs>
<radialGradient id="paint0_radial_101_1478" cx="0" cy="0" r="1" gradientUnits="userSpaceOnUse" gradientTransform="translate(24.8341 26.1251) scale(7.31844 3.59482)">
<stop offset="0.699" stop-color="#F98B25" stop-opacity="0"/>
<stop offset="1" stop-color="#F98B25"/>
</radialGradient>
<radialGradient id="paint1_radial_101_1478" cx="0" cy="0" r="1" gradientUnits="userSpaceOnUse" gradientTransform="translate(31.766 24.5827) rotate(154.924) scale(2.1627 1.60442)">
<stop stop-color="#F98B25"/>
<stop offset="0.872" stop-color="#F98B25" stop-opacity="0"/>
</radialGradient>
<radialGradient id="paint2_radial_101_1478" cx="0" cy="0" r="1" gradientUnits="userSpaceOnUse" gradientTransform="translate(27.279 18.5252) rotate(-94.2783) scale(9.49956 7.91727)">
<stop offset="0.699" stop-color="#F98B25" stop-opacity="0"/>
<stop offset="1" stop-color="#F98B25"/>
</radialGradient>
<radialGradient id="paint3_radial_101_1478" cx="0" cy="0" r="1" gradientUnits="userSpaceOnUse" gradientTransform="translate(12.979 19.5765) rotate(-85.7217) scale(9.49956 7.91727)">
<stop offset="0.699" stop-color="#F98B25" stop-opacity="0"/>
<stop offset="1" stop-color="#F98B25"/>
</radialGradient>
<radialGradient id="paint4_radial_101_1478" cx="0" cy="0" r="1" gradientUnits="userSpaceOnUse" gradientTransform="translate(15.2766 26.1057) rotate(180) scale(7.31844 3.59482)">
<stop offset="0.699" stop-color="#F98B25" stop-opacity="0"/>
<stop offset="1" stop-color="#F98B25"/>
</radialGradient>
<radialGradient id="paint5_radial_101_1478" cx="0" cy="0" r="1" gradientUnits="userSpaceOnUse" gradientTransform="translate(8.24181 24.5832) rotate(25.0761) scale(2.1627 1.60442)">
<stop stop-color="#F98B25"/>
<stop offset="0.944" stop-color="#F98B25" stop-opacity="0"/>
</radialGradient>
<linearGradient id="paint6_linear_101_1478" x1="20" y1="29.5516" x2="20" y2="38.1594" gradientUnits="userSpaceOnUse">
<stop stop-color="#F78C1F"/>
<stop offset="0.494" stop-color="#F37F21"/>
<stop offset="1" stop-color="#ED6D23"/>
</linearGradient>
<radialGradient id="paint7_radial_101_1478" cx="0" cy="0" r="1" gradientUnits="userSpaceOnUse" gradientTransform="translate(26.4447 12.96) rotate(72.0851) scale(11.1351 8.26201)">
<stop offset="0.699" stop-color="#F98B25" stop-opacity="0"/>
<stop offset="1" stop-color="#F98B25"/>
</radialGradient>
<radialGradient id="paint8_radial_101_1478" cx="0" cy="0" r="1" gradientUnits="userSpaceOnUse" gradientTransform="translate(14.7752 1.31298) rotate(28.2026) scale(2.91975 3.46197)">
<stop offset="0.393" stop-color="#F98B25"/>
<stop offset="1" stop-color="#F98B25" stop-opacity="0"/>
</radialGradient>
<radialGradient id="paint9_radial_101_1478" cx="0" cy="0" r="1" gradientUnits="userSpaceOnUse" gradientTransform="translate(21.9063 7.28175) rotate(-157.19) scale(11.2577 6.32688)">
<stop offset="0.709" stop-color="#F98B25" stop-opacity="0"/>
<stop offset="1" stop-color="#F98B25"/>
</radialGradient>
<radialGradient id="paint10_radial_101_1478" cx="0" cy="0" r="1" gradientUnits="userSpaceOnUse" gradientTransform="translate(14.4903 4.98822) scale(4.09344 5.0075)">
<stop offset="0.786" stop-color="#F98B25" stop-opacity="0"/>
<stop offset="1" stop-color="#F98B25"/>
</radialGradient>
<radialGradient id="paint11_radial_101_1478" cx="0" cy="0" r="1" gradientUnits="userSpaceOnUse" gradientTransform="translate(11.9229 7.95091) rotate(-164.942) scale(5.02612 4.70354)">
<stop offset="0.503" stop-color="#F98B25" stop-opacity="0"/>
<stop offset="1" stop-color="#F98B25"/>
</radialGradient>
<radialGradient id="paint12_radial_101_1478" cx="0" cy="0" r="1" gradientUnits="userSpaceOnUse" gradientTransform="translate(11.3728 13.4114) rotate(7.83355) scale(5.27704 5.23973)">
<stop offset="0.699" stop-color="#F98B25" stop-opacity="0"/>
<stop offset="1" stop-color="#F98B25"/>
</radialGradient>
</defs>
</svg>
