<svg width="40" height="40" viewBox="0 0 40 40" fill="none" xmlns="http://www.w3.org/2000/svg">
<path d="M25.54 0.707779C22.6756 -0.218888 15.9334 0.0333341 14.2478 2.22445C9.86558 2.30889 4.72558 6.26889 4.05113 11.4944C3.38446 16.6656 4.87113 19.0667 5.40002 22.9556C5.99891 27.3611 8.47558 28.77 10.4567 29.36C13.3056 33.1233 16.3345 32.9622 21.4189 32.9622C31.3489 32.9622 36.0778 26.3178 36.4956 15.0333C36.7478 8.20778 32.7434 3.03889 25.54 0.707779Z" fill="#FFAC33"/>
<path d="M31.2189 15.5156C30.2578 14.1856 29.0278 13.1144 26.3311 12.7344C27.3422 13.1978 28.3111 14.7989 28.4378 15.6833C28.5645 16.5678 28.6911 17.2844 27.89 16.4C24.6833 12.8556 21.19 14.2511 17.7289 12.0856C15.3111 10.5733 14.5756 8.9 14.5756 8.9C14.5756 8.9 14.2811 11.1333 10.6144 13.4089C9.55223 14.0689 8.28445 15.5378 7.58112 17.7067C7.07556 19.2656 7.23223 20.6567 7.23223 23.0322C7.23223 29.9678 12.9478 35.7989 19.9989 35.7989C27.05 35.7989 32.7656 29.9167 32.7656 23.0322C32.7667 18.7178 32.3145 17.0333 31.2189 15.5156Z" fill="#FFDC5D"/>
<path d="M30.4166 26.86C29.2589 28.0822 26.9444 30.5267 24.63 29.3044C21.3566 27.5756 20 28.0822 20 28.0822C20 28.0822 18.6433 27.5767 15.37 29.3044C13.0555 30.5267 10.74 28.0822 9.58331 26.86C8.76442 25.9956 6.11108 24.4156 6.11108 26.86C6.11108 30.5267 8.42553 32.9711 8.42553 32.9711C10.74 39.0822 15.37 39.0822 15.37 39.0822C16.5278 40.3044 23.4722 40.3044 24.6289 39.0822C24.6289 39.0822 29.2589 39.0822 31.5733 32.9711C31.5733 32.9711 33.8877 30.5267 33.8877 26.86C33.8889 24.4156 31.2344 25.9967 30.4166 26.86Z" fill="#FFAC33"/>
<path d="M20 32.9722C15.37 32.9722 11.8978 30.5278 20 30.5278C28.1022 30.5278 24.63 32.9722 20 32.9722Z" fill="#FFDC5D"/>
<path d="M21.4177 26.5789H18.5811C18.3931 26.5789 18.2128 26.5042 18.0798 26.3713C17.9469 26.2383 17.8722 26.058 17.8722 25.87C17.8722 25.682 17.9469 25.5017 18.0798 25.3687C18.2128 25.2358 18.3931 25.1611 18.5811 25.1611H21.4177C21.6058 25.1611 21.7861 25.2358 21.919 25.3687C22.052 25.5017 22.1266 25.682 22.1266 25.87C22.1266 26.058 22.052 26.2383 21.919 26.3713C21.7861 26.5042 21.6058 26.5789 21.4177 26.5789Z" fill="#C1694F"/>
<path d="M14.3256 21.6144C13.9493 21.6144 13.5884 21.465 13.3223 21.1989C13.0562 20.9328 12.9067 20.5719 12.9067 20.1956V18.7767C12.9067 18.4003 13.0562 18.0394 13.3223 17.7734C13.5884 17.5073 13.9493 17.3578 14.3256 17.3578C14.7019 17.3578 15.0628 17.5073 15.3289 17.7734C15.595 18.0394 15.7445 18.4003 15.7445 18.7767V20.1956C15.7445 20.9789 15.1089 21.6144 14.3256 21.6144ZM25.6733 21.6144C25.297 21.6144 24.9361 21.465 24.67 21.1989C24.4039 20.9328 24.2545 20.5719 24.2545 20.1956V18.7767C24.2545 18.4003 24.4039 18.0394 24.67 17.7734C24.9361 17.5073 25.297 17.3578 25.6733 17.3578C26.0497 17.3578 26.4106 17.5073 26.6766 17.7734C26.9427 18.0394 27.0922 18.4003 27.0922 18.7767V20.1956C27.0922 20.9789 26.4567 21.6144 25.6733 21.6144Z" fill="#662113"/>
</svg>
